<svg width="78" height="51" viewBox="0 0 78 51" fill="none" xmlns="http://www.w3.org/2000/svg">
<path d="M10.4492 16.4224C10.4492 15.6737 10.1847 15.043 9.65576 14.5303C9.13493 14.0176 8.25195 13.5537 7.00684 13.1387C5.27344 12.6097 4.00798 11.922 3.21045 11.0757C2.42106 10.2212 2.02637 9.13883 2.02637 7.82861C2.02637 6.49398 2.41292 5.39941 3.18604 4.54492C3.96729 3.69043 5.03743 3.1818 6.39648 3.01904V0.345703H8.21533V3.03125C9.58252 3.21842 10.6445 3.79215 11.4014 4.75244C12.1663 5.71273 12.5488 7.02702 12.5488 8.69531H10.3027C10.3027 7.54785 10.0301 6.63639 9.48486 5.96094C8.93962 5.28548 8.20312 4.94775 7.27539 4.94775C6.30697 4.94775 5.56641 5.20003 5.05371 5.70459C4.54102 6.20101 4.28467 6.89681 4.28467 7.79199C4.28467 8.62207 4.55322 9.28532 5.09033 9.78174C5.63558 10.27 6.52669 10.7176 7.76367 11.1245C9.00879 11.5233 9.97721 11.9668 10.6689 12.4551C11.3688 12.9352 11.8815 13.4967 12.207 14.1396C12.5407 14.7826 12.7075 15.5353 12.7075 16.3979C12.7075 17.7733 12.2925 18.88 11.4624 19.7183C10.6405 20.5565 9.48486 21.0529 7.99561 21.2075V23.5391H6.18896V21.2075C4.67529 21.0692 3.48714 20.5321 2.62451 19.5962C1.77002 18.6522 1.34277 17.3745 1.34277 15.7632H3.60107C3.60107 16.8944 3.89811 17.7651 4.49219 18.3755C5.08626 18.9858 5.92855 19.291 7.01904 19.291C8.08512 19.291 8.92334 19.0347 9.53369 18.522C10.144 18.0093 10.4492 17.3094 10.4492 16.4224ZM28.1101 21H16.4646V19.3765L22.617 12.5405C23.5284 11.507 24.1551 10.6688 24.4969 10.0259C24.8468 9.37484 25.0218 8.70345 25.0218 8.01172C25.0218 7.08398 24.741 6.32308 24.1795 5.729C23.618 5.13493 22.8693 4.83789 21.9334 4.83789C20.8103 4.83789 19.9355 5.15934 19.3089 5.80225C18.6904 6.43701 18.3811 7.32406 18.3811 8.46338H16.1228C16.1228 6.82764 16.6477 5.50521 17.6975 4.49609C18.7555 3.48698 20.1674 2.98242 21.9334 2.98242C23.5854 2.98242 24.8916 3.41781 25.8518 4.28857C26.8121 5.1512 27.2923 6.30273 27.2923 7.74316C27.2923 9.49284 26.1774 11.5762 23.9475 13.9932L19.1868 19.1567H28.1101V21ZM40.3145 3.21436V5.13086H39.8995C38.1417 5.16341 36.7419 5.68424 35.7003 6.69336C34.6586 7.70247 34.0564 9.12256 33.8936 10.9536C34.8295 9.87939 36.1072 9.34229 37.7266 9.34229C39.2729 9.34229 40.5058 9.88753 41.4254 10.978C42.3531 12.0685 42.817 13.4764 42.817 15.2017C42.817 17.0327 42.3165 18.4976 41.3155 19.5962C40.3227 20.6948 38.988 21.2441 37.3116 21.2441C35.6108 21.2441 34.2314 20.5931 33.1734 19.291C32.1155 17.9808 31.5865 16.2962 31.5865 14.2373V13.3706C31.5865 10.0991 32.2823 7.60075 33.6739 5.87549C35.0736 4.14209 37.1529 3.25505 39.9117 3.21436H40.3145ZM37.3482 11.2222C36.5751 11.2222 35.863 11.4541 35.212 11.918C34.5609 12.3818 34.1093 12.9637 33.857 13.6636V14.4937C33.857 15.9585 34.1866 17.1385 34.8458 18.0337C35.505 18.9289 36.3269 19.3765 37.3116 19.3765C38.3289 19.3765 39.1264 19.0021 39.7042 18.2534C40.2901 17.5047 40.5831 16.5241 40.5831 15.3115C40.5831 14.0908 40.286 13.1061 39.692 12.3574C39.106 11.6006 38.3248 11.2222 37.3482 11.2222ZM47.0257 21V3.22656H52.8363C54.765 3.22656 56.2136 3.62533 57.182 4.42285C58.1586 5.22038 58.6468 6.40039 58.6468 7.96289C58.6468 8.79297 58.4108 9.52946 57.9388 10.1724C57.4668 10.8071 56.8239 11.2995 56.0101 11.6494C56.9704 11.918 57.7272 12.4307 58.2806 13.1875C58.8422 13.9362 59.1229 14.8314 59.1229 15.873C59.1229 17.4681 58.6061 18.7214 57.5726 19.6328C56.5391 20.5443 55.0783 21 53.1903 21H47.0257ZM49.3695 12.687V19.0835H53.2391C54.3296 19.0835 55.1882 18.8027 55.8148 18.2412C56.4496 17.6715 56.767 16.8903 56.767 15.8975C56.767 13.7572 55.6032 12.687 53.2757 12.687H49.3695ZM49.3695 10.8071H52.9095C53.9349 10.8071 54.7528 10.5508 55.3631 10.0381C55.9816 9.52539 56.2909 8.82959 56.2909 7.95068C56.2909 6.97412 56.0061 6.26611 55.4364 5.82666C54.8667 5.37907 54 5.15527 52.8363 5.15527H49.3695V10.8071ZM69.6671 11.4663H74.6232V13.6025H69.6671V19.2178H67.3966V13.6025H62.4406V11.4663H67.3966V6.27832H69.6671V11.4663Z" fill="#230B59"/>
<path d="M2.19727 45H1.07227V36.4688H2.19727V45ZM5.11523 38.6602L5.15039 39.457C5.63477 38.8477 6.26758 38.543 7.04883 38.543C8.38867 38.543 9.06445 39.2988 9.07617 40.8105V45H7.99219V40.8047C7.98828 40.3477 7.88281 40.0098 7.67578 39.791C7.47266 39.5723 7.1543 39.4629 6.7207 39.4629C6.36914 39.4629 6.06055 39.5566 5.79492 39.7441C5.5293 39.9316 5.32227 40.1777 5.17383 40.4824V45H4.08984V38.6602H5.11523ZM16.2305 44.2324C16.6172 44.2324 16.9551 44.1152 17.2441 43.8809C17.5332 43.6465 17.6934 43.3535 17.7246 43.002H18.75C18.7305 43.3652 18.6055 43.7109 18.375 44.0391C18.1445 44.3672 17.8359 44.6289 17.4492 44.8242C17.0664 45.0195 16.6602 45.1172 16.2305 45.1172C15.3672 45.1172 14.6797 44.8301 14.168 44.2559C13.6602 43.6777 13.4062 42.8887 13.4062 41.8887V41.707C13.4062 41.0898 13.5195 40.541 13.7461 40.0605C13.9727 39.5801 14.2969 39.207 14.7188 38.9414C15.1445 38.6758 15.6465 38.543 16.2246 38.543C16.9355 38.543 17.5254 38.7559 17.9941 39.1816C18.4668 39.6074 18.7188 40.1602 18.75 40.8398H17.7246C17.6934 40.4297 17.5371 40.0938 17.2559 39.832C16.9785 39.5664 16.6348 39.4336 16.2246 39.4336C15.6738 39.4336 15.2461 39.6328 14.9414 40.0312C14.6406 40.4258 14.4902 40.998 14.4902 41.748V41.9531C14.4902 42.6836 14.6406 43.2461 14.9414 43.6406C15.2422 44.0352 15.6719 44.2324 16.2305 44.2324ZM21.1465 45H20.0625V36H21.1465V45ZM24.0645 45H22.9805V38.6602H24.0645V45ZM22.8926 36.9785C22.8926 36.8027 22.9453 36.6543 23.0508 36.5332C23.1602 36.4121 23.3203 36.3516 23.5312 36.3516C23.7422 36.3516 23.9023 36.4121 24.0117 36.5332C24.1211 36.6543 24.1758 36.8027 24.1758 36.9785C24.1758 37.1543 24.1211 37.3008 24.0117 37.418C23.9023 37.5352 23.7422 37.5938 23.5312 37.5938C23.3203 37.5938 23.1602 37.5352 23.0508 37.418C22.9453 37.3008 22.8926 37.1543 22.8926 36.9785ZM28.4355 45.1172C27.5762 45.1172 26.877 44.8359 26.3379 44.2734C25.7988 43.707 25.5293 42.9512 25.5293 42.0059V41.8066C25.5293 41.1777 25.6484 40.6172 25.8867 40.125C26.1289 39.6289 26.4648 39.2422 26.8945 38.9648C27.3281 38.6836 27.7969 38.543 28.3008 38.543C29.125 38.543 29.7656 38.8145 30.2227 39.3574C30.6797 39.9004 30.9082 40.6777 30.9082 41.6895V42.1406H26.6133C26.6289 42.7656 26.8105 43.2715 27.1582 43.6582C27.5098 44.041 27.9551 44.2324 28.4941 44.2324C28.877 44.2324 29.2012 44.1543 29.4668 43.998C29.7324 43.8418 29.9648 43.6348 30.1641 43.377L30.8262 43.8926C30.2949 44.709 29.498 45.1172 28.4355 45.1172ZM28.3008 39.4336C27.8633 39.4336 27.4961 39.5938 27.1992 39.9141C26.9023 40.2305 26.7188 40.6758 26.6484 41.25H29.8242V41.168C29.793 40.6172 29.6445 40.1914 29.3789 39.8906C29.1133 39.5859 28.7539 39.4336 28.3008 39.4336ZM33.1934 38.6602L33.2285 39.457C33.7129 38.8477 34.3457 38.543 35.127 38.543C36.4668 38.543 37.1426 39.2988 37.1543 40.8105V45H36.0703V40.8047C36.0664 40.3477 35.9609 40.0098 35.7539 39.791C35.5508 39.5723 35.2324 39.4629 34.7988 39.4629C34.4473 39.4629 34.1387 39.5566 33.873 39.7441C33.6074 39.9316 33.4004 40.1777 33.252 40.4824V45H32.168V38.6602H33.1934ZM40.2598 37.125V38.6602H41.4434V39.498H40.2598V43.4297C40.2598 43.6836 40.3125 43.875 40.418 44.0039C40.5234 44.1289 40.7031 44.1914 40.957 44.1914C41.082 44.1914 41.2539 44.168 41.4727 44.1211V45C41.1875 45.0781 40.9102 45.1172 40.6406 45.1172C40.1562 45.1172 39.791 44.9707 39.5449 44.6777C39.2988 44.3848 39.1758 43.9688 39.1758 43.4297V39.498H38.0215V38.6602H39.1758V37.125H40.2598ZM46.2246 45V39.498H45.2227V38.6602H46.2246V38.0098C46.2246 37.3301 46.4062 36.8047 46.7695 36.4336C47.1328 36.0625 47.6465 35.877 48.3105 35.877C48.5605 35.877 48.8086 35.9102 49.0547 35.9766L48.9961 36.8555C48.8125 36.8203 48.6172 36.8027 48.4102 36.8027C48.0586 36.8027 47.7871 36.9062 47.5957 37.1133C47.4043 37.3164 47.3086 37.6094 47.3086 37.9922V38.6602H48.6621V39.498H47.3086V45H46.2246ZM53.7773 44.373C53.3555 44.8691 52.7363 45.1172 51.9199 45.1172C51.2441 45.1172 50.7285 44.9219 50.373 44.5312C50.0215 44.1367 49.8438 43.5547 49.8398 42.7852V38.6602H50.9238V42.7559C50.9238 43.7168 51.3145 44.1973 52.0957 44.1973C52.9238 44.1973 53.4746 43.8887 53.748 43.2715V38.6602H54.832V45H53.8008L53.7773 44.373ZM57.5098 38.6602L57.5449 39.457C58.0293 38.8477 58.6621 38.543 59.4434 38.543C60.7832 38.543 61.459 39.2988 61.4707 40.8105V45H60.3867V40.8047C60.3828 40.3477 60.2773 40.0098 60.0703 39.791C59.8672 39.5723 59.5488 39.4629 59.1152 39.4629C58.7637 39.4629 58.4551 39.5566 58.1895 39.7441C57.9238 39.9316 57.7168 40.1777 57.5684 40.4824V45H56.4844V38.6602H57.5098ZM62.8418 41.7773C62.8418 40.8047 63.0723 40.0234 63.5332 39.4336C63.9941 38.8398 64.5977 38.543 65.3438 38.543C66.0859 38.543 66.6738 38.7969 67.1074 39.3047V36H68.1914V45H67.1953L67.1426 44.3203C66.709 44.8516 66.1055 45.1172 65.332 45.1172C64.5977 45.1172 63.998 44.8164 63.5332 44.2148C63.0723 43.6133 62.8418 42.8281 62.8418 41.8594V41.7773ZM63.9258 41.9004C63.9258 42.6191 64.0742 43.1816 64.3711 43.5879C64.668 43.9941 65.0781 44.1973 65.6016 44.1973C66.2891 44.1973 66.791 43.8887 67.1074 43.2715V40.3594C66.7832 39.7617 66.2852 39.4629 65.6133 39.4629C65.082 39.4629 64.668 39.668 64.3711 40.0781C64.0742 40.4883 63.9258 41.0957 63.9258 41.9004ZM73.5703 43.3184C73.5703 43.0254 73.459 42.7988 73.2363 42.6387C73.0176 42.4746 72.6328 42.334 72.082 42.2168C71.5352 42.0996 71.0996 41.959 70.7754 41.7949C70.4551 41.6309 70.2168 41.4355 70.0605 41.209C69.9082 40.9824 69.832 40.7129 69.832 40.4004C69.832 39.8809 70.0508 39.4414 70.4883 39.082C70.9297 38.7227 71.4922 38.543 72.1758 38.543C72.8945 38.543 73.4766 38.7285 73.9219 39.0996C74.3711 39.4707 74.5957 39.9453 74.5957 40.5234H73.5059C73.5059 40.2266 73.3789 39.9707 73.125 39.7559C72.875 39.541 72.5586 39.4336 72.1758 39.4336C71.7812 39.4336 71.4727 39.5195 71.25 39.6914C71.0273 39.8633 70.916 40.0879 70.916 40.3652C70.916 40.627 71.0195 40.8242 71.2266 40.957C71.4336 41.0898 71.8066 41.2168 72.3457 41.3379C72.8887 41.459 73.3281 41.6035 73.6641 41.7715C74 41.9395 74.248 42.1426 74.4082 42.3809C74.5723 42.6152 74.6543 42.9023 74.6543 43.2422C74.6543 43.8086 74.4277 44.2637 73.9746 44.6074C73.5215 44.9473 72.9336 45.1172 72.2109 45.1172C71.7031 45.1172 71.2539 45.0273 70.8633 44.8477C70.4727 44.668 70.166 44.418 69.9434 44.0977C69.7246 43.7734 69.6152 43.4238 69.6152 43.0488H70.6992C70.7188 43.4121 70.8633 43.7012 71.1328 43.916C71.4062 44.127 71.7656 44.2324 72.2109 44.2324C72.6211 44.2324 72.9492 44.1504 73.1953 43.9863C73.4453 43.8184 73.5703 43.5957 73.5703 43.3184Z" fill="#230B59"/>
</svg>
